<svg width="26" height="25" viewBox="0 0 26 25" fill="none" xmlns="http://www.w3.org/2000/svg">
<path fill-rule="evenodd" clip-rule="evenodd" d="M12.9013 0.669922C5.76721 0.669922 0 6.21321 0 13.071C0 18.5528 3.69525 23.1931 8.82154 24.8354C9.46246 24.9589 9.69723 24.5686 9.69723 24.2402C9.69723 23.9527 9.6761 22.9673 9.6761 21.9405C6.08727 22.6798 5.33993 20.4622 5.33993 20.4622C4.76318 19.025 3.90863 18.6556 3.90863 18.6556C2.734 17.8959 3.99419 17.8959 3.99419 17.8959C5.29715 17.9781 5.98085 19.1689 5.98085 19.1689C7.13408 21.0576 8.9924 20.524 9.74001 20.1954C9.84669 19.3946 10.1887 18.8403 10.5518 18.5324C7.68944 18.2449 4.67789 17.1773 4.67789 12.4139C4.67789 11.0588 5.1902 9.95014 6.00198 9.08791C5.8739 8.78001 5.42523 7.50681 6.13032 5.80276C6.13032 5.80276 7.21964 5.47419 9.67584 7.0757C10.7274 6.80424 11.8119 6.66615 12.9013 6.66499C13.9906 6.66499 15.1011 6.80886 16.1265 7.0757C18.5829 5.47419 19.6723 5.80276 19.6723 5.80276C20.3774 7.50681 19.9284 8.78001 19.8003 9.08791C20.6335 9.95014 21.1247 11.0588 21.1247 12.4139C21.1247 17.1773 18.1131 18.2243 15.2294 18.5324C15.6995 18.9225 16.1051 19.6615 16.1051 20.8319C16.1051 22.4949 16.084 23.8295 16.084 24.24C16.084 24.5686 16.319 24.9588 16.9597 24.8356C22.0859 23.1928 25.7812 18.5528 25.7812 13.071C25.8023 6.21321 20.014 0.669922 12.9013 0.669922Z" fill="white"/>
</svg>
