<svg width="27" height="25" viewBox="0 0 27 25" fill="none" xmlns="http://www.w3.org/2000/svg">
<g clip-path="url(#clip0_64_108)">
<path d="M13.3148 10.2273V15.0682H20.4806C20.1659 16.625 19.2217 17.9433 17.8055 18.8296L22.1268 21.9774C24.6445 19.7956 26.0971 16.591 26.0971 12.7842C26.0971 11.8979 26.0123 11.0455 25.8549 10.2274L13.3148 10.2273Z" fill="white"/>
<path d="M5.85268 14.8792L4.87807 15.5795L1.42822 18.1022C3.61913 22.1817 8.10958 25 13.3145 25C16.9094 25 19.9234 23.8863 22.1265 21.9773L17.8052 18.8295C16.6189 19.5795 15.1059 20.0341 13.3145 20.0341C9.85261 20.0341 6.91129 17.8409 5.85813 14.8864L5.85268 14.8792Z" fill="white"/>
<path d="M1.42823 6.89771C0.52044 8.57945 0 10.4772 0 12.4999C0 14.5226 0.52044 16.4204 1.42823 18.1021C1.42823 18.1134 5.85856 14.8748 5.85856 14.8748C5.59226 14.1248 5.43486 13.3294 5.43486 12.4998C5.43486 11.6701 5.59226 10.8747 5.85856 10.1247L1.42823 6.89771Z" fill="white"/>
<path d="M13.3148 4.97727C15.2757 4.97727 17.0187 5.61362 18.4107 6.84091L22.2236 3.26141C19.9117 1.23871 16.9098 0 13.3148 0C8.10985 0 3.61913 2.80681 1.42822 6.89774L5.85842 10.125C6.91145 7.17043 9.85288 4.97727 13.3148 4.97727Z" fill="white"/>
</g>
<defs>
<clipPath id="clip0_64_108">
<rect width="26.6299" height="25" fill="white"/>
</clipPath>
</defs>
</svg>
