<svg width="83" height="81" viewBox="0 0 83 81" fill="none" xmlns="http://www.w3.org/2000/svg">
<path d="M82.9965 36.6552C82.9965 31.4283 80.2333 26.5427 75.7168 23.6482C75.7479 23.3236 75.7686 22.9957 75.7686 22.6644C75.7686 16.1291 71.3593 10.9022 65.4109 10.1359C64.2316 4.34682 58.93 0 52.7361 0C47.9394 0 43.741 2.53648 41.4965 6.29436C39.2521 2.53314 35.0537 0 30.257 0C24.0665 0 18.7684 4.34348 17.5891 10.1259C11.6753 10.8587 7.22792 16.1023 7.22792 22.661C7.22792 22.9957 7.24867 23.3236 7.27979 23.6448C2.75975 26.5394 0 31.425 0 36.6518C0 39.784 0.971792 42.7822 2.82892 45.399C0.971792 48.0158 0 51.0141 0 54.1462C0 59.6408 3.01221 64.7038 7.91267 67.5381C10.0638 75.094 17.0773 80.3075 25.232 80.3075C32.4046 80.3075 38.6123 76.225 41.5 70.3355C44.3912 76.225 50.5954 80.3075 57.768 80.3075C65.9193 80.3075 72.9362 75.094 75.0873 67.5381C79.9878 64.7038 83 59.6408 83 54.1462C83 51.0141 82.0282 48.0158 80.1711 45.399C82.0282 42.7822 83 39.784 83 36.6518L82.9965 36.6552ZM25.2285 76.9645C18.4364 76.9645 12.6195 72.4805 11.0909 66.0623C10.9802 65.5905 10.662 65.1923 10.2228 64.9614C6.04863 62.7997 3.45487 58.6537 3.45487 54.1496C3.45487 51.3655 4.44742 48.7052 6.32529 46.4565C6.83712 45.8407 6.83712 44.9674 6.32529 44.3516C4.44742 42.1029 3.45487 39.4426 3.45487 36.6585C3.45487 32.2548 5.96217 28.1556 9.99804 25.9638C10.6413 25.6158 10.9837 24.9097 10.8523 24.2104C10.7589 23.7084 10.6863 23.1964 10.6863 22.6677C10.6863 18.1067 13.8022 13.3918 19.1073 13.3918C20.0099 13.3918 20.7638 12.7192 20.8295 11.8492C21.21 7.08743 25.3565 3.35298 30.2604 3.35298C35.5067 3.35298 39.7708 7.47895 39.7708 12.5553V28.3631H30.9071C30.1359 25.4786 27.4246 23.3437 24.2083 23.3437C20.3938 23.3437 17.2917 26.3453 17.2917 30.0362C17.2917 33.7272 20.3938 36.7288 24.2083 36.7288C27.4246 36.7288 30.1359 34.5939 30.9071 31.7094H39.7708V51.7871H30.9071C30.1359 48.9026 27.4246 46.7677 24.2083 46.7677C20.3938 46.7677 17.2917 49.7693 17.2917 53.4602C17.2917 57.1512 20.3938 60.1528 24.2083 60.1528C27.4246 60.1528 30.1359 58.0179 30.9071 55.1334H39.7708V62.9001C39.7708 70.6568 33.2484 76.9712 25.232 76.9712L25.2285 76.9645ZM27.6632 30.0296C27.6632 31.8734 26.1139 33.3758 24.2049 33.3758C22.2959 33.3758 20.7465 31.8734 20.7465 30.0296C20.7465 28.1857 22.2959 26.6833 24.2049 26.6833C26.1139 26.6833 27.6632 28.1857 27.6632 30.0296ZM27.6632 53.4535C27.6632 55.2973 26.1139 56.7998 24.2049 56.7998C22.2959 56.7998 20.7465 55.2973 20.7465 53.4535C20.7465 51.6097 22.2959 50.1073 24.2049 50.1073C26.1139 50.1073 27.6632 51.6097 27.6632 53.4535ZM76.6678 46.4531C78.5457 48.7018 79.5382 51.3621 79.5382 54.1462C79.5382 58.6537 76.9445 62.7964 72.7702 64.9581C72.331 65.1856 72.0129 65.5872 71.9022 66.059C70.3736 72.4772 64.5567 76.9612 57.7645 76.9612C49.7481 76.9612 43.2257 70.6501 43.2257 62.8901V46.7576H51.8715C56.6406 46.7576 60.5174 43.0031 60.5174 38.3919V36.508C63.4985 35.7617 65.7049 33.1416 65.7049 30.0262C65.7049 26.3353 62.6027 23.3336 58.7882 23.3336C54.9737 23.3336 51.8715 26.3353 51.8715 30.0262C51.8715 33.1382 54.078 35.7617 57.059 36.508V38.3919C57.059 41.1593 54.7316 43.4113 51.8715 43.4113H43.2257V12.5486C43.2257 7.47225 47.4898 3.34628 52.7361 3.34628C57.64 3.34628 61.7831 7.07739 62.167 11.8425C62.2362 12.7125 63.0765 13.3851 63.9757 13.3851C69.1909 13.3851 72.3068 18.1034 72.3068 22.661C72.3068 23.1897 72.2342 23.7017 72.1408 24.2037C72.0094 24.903 72.3552 25.6091 72.995 25.9571C77.0309 28.1489 79.5382 32.2481 79.5382 36.6518C79.5382 39.436 78.5457 42.0963 76.6678 44.345C76.156 44.9607 76.156 45.834 76.6678 46.4498V46.4531ZM58.7882 33.3758C56.8792 33.3758 55.3299 31.8734 55.3299 30.0296C55.3299 28.1857 56.8792 26.6833 58.7882 26.6833C60.6972 26.6833 62.2465 28.1857 62.2465 30.0296C62.2465 31.8734 60.6972 33.3758 58.7882 33.3758Z" fill="black"/>
</svg>
