<svg width="128" height="128" viewBox="0 0 128 128" fill="white" xmlns="http://www.w3.org/2000/svg">
<g clip-path="url(#clip0_64_173)">
<path d="M15.091 41.64H22.091V74.043C18.501 74.725 15.864 74.998 13.001 74.998C4.455 74.998 0 71.134 0 63.724C0 56.588 4.728 51.952 12.046 51.952C13.182 51.952 14.046 52.042 15.091 52.315V41.64ZM15.091 57.95C14.273 57.678 13.591 57.587 12.728 57.587C9.182 57.587 7.137 59.769 7.137 63.587C7.137 67.314 9.091 69.36 12.682 69.36C13.455 69.36 14.092 69.314 15.092 69.178L15.091 57.95Z" fill="white"/>
<path d="M33.227 52.45V68.678C33.227 74.268 32.818 76.95 31.591 79.268C30.454 81.497 28.954 82.905 25.863 84.451L19.363 81.36C22.454 79.905 23.953 78.633 24.908 76.678C25.908 74.678 26.228 72.36 26.228 66.268V52.45H33.227ZM26.227 41.677H33.227V48.859H26.227V41.677ZM37.456 54.041C40.546 52.587 43.501 51.951 46.729 51.951C50.319 51.951 52.683 52.905 53.729 54.769C54.319 55.814 54.501 57.178 54.501 60.087V74.314C51.365 74.769 47.411 75.087 44.501 75.087C38.638 75.087 36.001 73.041 36.001 68.496C36.001 63.586 39.501 61.314 48.092 60.586V59.041C48.092 57.768 47.456 57.314 45.683 57.314C43.093 57.314 40.183 58.041 37.455 59.451L37.456 54.041ZM48.41 65.178C43.774 65.632 42.274 66.36 42.274 68.178C42.274 69.541 43.138 70.178 45.047 70.178C46.092 70.178 47.047 70.088 48.41 69.86V65.178ZM57.912 53.541C62.048 52.451 65.457 51.951 68.912 51.951C72.503 51.951 75.094 52.768 76.64 54.36C78.095 55.86 78.549 57.495 78.549 60.996V74.723H71.549V61.27C71.549 58.588 70.639 57.588 68.139 57.588C67.185 57.588 66.322 57.678 64.912 58.088V74.724H57.912V53.541ZM81.269 78.541C83.724 79.814 86.178 80.405 88.769 80.405C93.359 80.405 95.314 78.541 95.314 74.086V73.95C93.951 74.632 92.587 74.905 90.769 74.905C84.632 74.905 80.723 70.859 80.723 64.45C80.723 56.495 86.496 51.995 96.723 51.995C99.723 51.995 102.496 52.313 105.86 52.995L103.463 58.045C101.599 57.681 103.313 57.995 101.905 57.859V58.587L101.995 61.541L102.041 65.359C102.087 66.314 102.087 67.269 102.132 68.223V70.133C102.132 76.133 101.632 78.95 100.132 81.268C97.95 84.678 94.178 86.36 88.814 86.36C86.086 86.36 83.724 85.95 81.268 84.996V78.54L81.269 78.541ZM95.179 57.631H94.451C93.088 57.586 91.497 57.949 90.405 58.631C88.724 59.586 87.86 61.313 87.86 63.768C87.86 67.268 89.587 69.268 92.678 69.268C93.633 69.268 94.406 69.086 95.314 68.814V66.404C95.314 65.587 95.269 64.677 95.269 63.723L95.224 60.496L95.178 58.177V57.632L95.179 57.631ZM116.727 51.86C123.727 51.86 128 56.269 128 63.405C128 70.724 123.546 75.315 116.454 75.315C109.454 75.315 105.136 70.905 105.136 63.815C105.136 56.45 109.591 51.86 116.727 51.86ZM116.59 69.678C119.272 69.678 120.864 67.45 120.864 63.587C120.864 59.769 119.318 57.496 116.637 57.496C113.863 57.496 112.272 59.724 112.272 63.586C112.272 67.451 113.863 69.678 116.59 69.678Z" fill="white"/>
</g>
<defs>
<clipPath id="clip0_64_173">
<rect width="128" height="128" fill="white"/>
</clipPath>
</defs>
</svg>
