<svg width="83" height="81" fill="none" xmlns="http://www.w3.org/2000/svg"><path d="M0 36.808h38.042V0H0v36.808zM3.458 3.346h31.125v30.115H3.458V3.346zm6.917 23.423h17.292V10.04H10.375v16.73zm3.458-13.384h10.375v10.038H13.833V13.385zM44.958 0v36.808H83V0H44.958zm34.584 33.461H48.417V3.346h31.125v30.115zm-6.917-23.423H55.333V26.77h17.292V10.04zm-3.458 13.385H58.792V13.385h10.375v10.038zM0 80.308h38.042V43.5H0v36.808zm3.458-33.462h31.125v30.115H3.458V46.846zm6.917 23.423h17.292v-16.73H10.375v16.73zm3.458-13.385h10.375v10.039H13.833V56.885zm55.334-3.346H58.792V43.5H44.958v13.385h10.375v10.038H44.958v13.385h13.834V70.269h13.833V56.884H83V43.5H69.167v10.038zm-20.75 0v-6.692h6.916v6.692h-6.916zm6.916 23.423h-6.916V70.27h6.916v6.692zm13.834-10.038H58.792V56.885h10.375v10.038zm3.458-20.077h6.917v6.692h-6.917v-6.692z" fill="#fff"/></svg>