<svg width="128" height="128" viewBox="0 0 128 128" fill="none" xmlns="http://www.w3.org/2000/svg">
<path d="M1.408 1.408H126.592V126.593H1.408V1.408Z" fill="#F0DB4F"/>
<path d="M127.037 102.538C126.12 96.8266 122.396 92.0296 111.365 87.5566C107.533 85.7956 103.261 84.5346 101.988 81.6306C101.536 79.9406 101.476 78.9886 101.762 77.9656C102.583 74.6456 106.546 73.6106 109.687 74.5626C111.71 75.2406 113.625 76.7996 114.78 79.2866C120.182 75.7886 120.171 75.8116 123.943 73.4076C122.562 71.2666 121.825 70.2786 120.921 69.3626C117.672 65.7336 113.245 63.8646 106.165 64.0076L102.477 64.4846C98.943 65.3776 95.575 67.2326 93.6 69.7196C87.674 76.4436 89.364 88.2116 96.575 93.0546C103.679 98.3866 114.115 99.5996 115.448 104.586C116.745 110.69 110.962 112.666 105.214 111.964C100.978 111.083 98.622 108.93 96.075 105.015C91.387 107.728 91.387 107.728 86.567 110.5C87.71 112.999 88.911 114.13 90.827 116.295C99.895 125.493 122.587 125.041 126.657 111.119C126.822 110.641 127.918 107.453 127.037 102.538ZM80.152 64.7446H68.443L68.395 95.0166C68.395 101.455 68.728 107.357 67.681 109.166C65.968 112.724 61.529 112.283 59.506 111.593C57.447 110.581 56.4 109.142 55.187 107.108C54.854 106.524 54.604 106.072 54.52 106.037L45 111.867C46.583 115.116 48.915 117.936 51.902 119.768C56.364 122.446 62.361 123.267 68.633 121.827C72.715 120.638 76.237 118.175 78.081 114.426C80.747 109.511 80.175 103.562 80.151 96.9816C80.211 86.2466 80.152 75.5136 80.152 64.7446Z" fill="#323330"/>
</svg>
