<svg width="83" height="81" viewBox="0 0 83 81" fill="none" xmlns="http://www.w3.org/2000/svg">
<path d="M0 36.8076H38.0417V0H0V36.8076ZM3.45833 3.34614H34.5833V33.4614H3.45833V3.34614ZM10.375 26.7692H27.6667V10.0384H10.375V26.7692ZM13.8333 13.3846H24.2083V23.423H13.8333V13.3846ZM44.9583 0V36.8076H83V0H44.9583ZM79.5417 33.4614H48.4167V3.34614H79.5417V33.4614ZM72.625 10.0384H55.3333V26.7692H72.625V10.0384ZM69.1667 23.423H58.7917V13.3846H69.1667V23.423ZM0 80.3075H38.0417V43.4999H0V80.3075ZM3.45833 46.846H34.5833V76.9613H3.45833V46.846ZM10.375 70.269H27.6667V53.5383H10.375V70.269ZM13.8333 56.8845H24.2083V66.9229H13.8333V56.8845ZM69.1667 53.5383H58.7917V43.4999H44.9583V56.8845H55.3333V66.9229H44.9583V80.3075H58.7917V70.269H72.625V56.8845H83V43.4999H69.1667V53.5383ZM48.4167 53.5383V46.846H55.3333V53.5383H48.4167ZM55.3333 76.9613H48.4167V70.269H55.3333V76.9613ZM69.1667 66.9229H58.7917V56.8845H69.1667V66.9229ZM72.625 46.846H79.5417V53.5383H72.625V46.846Z" fill="black"/>
</svg>
