<svg width="83" height="83" viewBox="0 0 83 83" fill="none" xmlns="http://www.w3.org/2000/svg">
<path d="M81.6513 54.6002L82.9308 57.813C81.2985 58.4632 79.5762 58.7917 77.8125 58.7917C72.6112 58.7917 68.0704 55.904 65.7083 51.6503C63.3463 55.9075 58.8055 58.7917 53.6042 58.7917C48.4028 58.7917 43.862 55.904 41.5 51.6503C39.138 55.9075 34.5972 58.7917 29.3958 58.7917C24.1945 58.7917 19.6537 55.904 17.2917 51.6503C14.9296 55.9075 10.3888 58.7917 5.1875 58.7917C3.43067 58.7917 1.71879 58.4666 0.100294 57.8268L1.37296 54.6106C2.58684 55.0913 3.86988 55.3334 5.1875 55.3334C10.9076 55.3334 15.5625 50.6785 15.5625 44.9584H19.0208C19.0208 50.6785 23.6758 55.3334 29.3958 55.3334C35.1159 55.3334 39.7708 50.6785 39.7708 44.9584H43.2292C43.2292 50.6785 47.8841 55.3334 53.6042 55.3334C59.3243 55.3334 63.9792 50.6785 63.9792 44.9584H67.4375C67.4375 50.6785 72.0924 55.3334 77.8125 55.3334C79.137 55.3334 80.4305 55.0878 81.6513 54.6002ZM77.8125 76.0834C72.0924 76.0834 67.4375 71.4285 67.4375 65.7084H63.9792C63.9792 71.4285 59.3243 76.0834 53.6042 76.0834C47.8841 76.0834 43.2292 71.4285 43.2292 65.7084H39.7708C39.7708 71.4285 35.1159 76.0834 29.3958 76.0834C23.6758 76.0834 19.0208 71.4285 19.0208 65.7084H15.5625C15.5625 71.4285 10.9076 76.0834 5.1875 76.0834C3.86642 76.0834 2.57646 75.8378 1.35913 75.3537L0.0830024 78.5699C1.71188 79.2166 3.42721 79.5417 5.19096 79.5417C10.3923 79.5417 14.9331 76.654 17.2951 72.4003C19.6572 76.6575 24.198 79.5417 29.3993 79.5417C34.6006 79.5417 39.1414 76.654 41.5035 72.4003C43.8655 76.6575 48.4063 79.5417 53.6076 79.5417C58.809 79.5417 63.3497 76.654 65.7118 72.4003C68.0738 76.6575 72.6146 79.5417 77.816 79.5417C79.5762 79.5417 81.295 79.2132 82.9239 78.5699L81.6478 75.3537C80.427 75.8378 79.1405 76.0834 77.8194 76.0834H77.8125ZM17.2917 10.1502C19.6537 14.4075 24.1945 17.2917 29.3958 17.2917C34.5972 17.2917 39.138 14.404 41.5 10.1502C43.862 14.4075 48.4028 17.2917 53.6042 17.2917C58.8055 17.2917 63.3463 14.404 65.7083 10.1502C68.0704 14.4075 72.6112 17.2917 77.8125 17.2917C79.5797 17.2917 81.302 16.9632 82.9308 16.313L81.6513 13.1002C80.4305 13.5878 79.137 13.8334 77.8125 13.8334C72.0924 13.8334 67.4375 9.17846 67.4375 3.45837H63.9792C63.9792 9.17846 59.3243 13.8334 53.6042 13.8334C47.8841 13.8334 43.2292 9.17846 43.2292 3.45837H39.7708C39.7708 9.17846 35.1159 13.8334 29.3958 13.8334C23.6758 13.8334 19.0208 9.17846 19.0208 3.45837H15.5625C15.5625 9.17846 10.9076 13.8334 5.1875 13.8334C3.86988 13.8334 2.58684 13.5913 1.37296 13.1106L0.100294 16.3268C1.71879 16.9701 3.43067 17.2917 5.1875 17.2917C10.3888 17.2917 14.9296 14.404 17.2917 10.1502ZM17.2917 30.9003C19.6537 35.1575 24.1945 38.0417 29.3958 38.0417C34.5972 38.0417 39.138 35.154 41.5 30.9003C43.862 35.1575 48.4028 38.0417 53.6042 38.0417C58.8055 38.0417 63.3463 35.154 65.7083 30.9003C68.0704 35.1575 72.6112 38.0417 77.8125 38.0417C79.5728 38.0417 81.2916 37.7132 82.9205 37.0699L81.6443 33.8537C80.4235 34.3378 79.137 34.5834 77.816 34.5834C72.0959 34.5834 67.441 29.9285 67.441 24.2084H63.9826C63.9826 29.9285 59.3277 34.5834 53.6076 34.5834C47.8875 34.5834 43.2326 29.9285 43.2326 24.2084H39.7743C39.7743 29.9285 35.1194 34.5834 29.3993 34.5834C23.6792 34.5834 19.0243 29.9285 19.0243 24.2084H15.566C15.566 29.9285 10.911 34.5834 5.19096 34.5834C3.86988 34.5834 2.57992 34.3378 1.36259 33.8537L0.0795441 37.0699C1.70842 37.7166 3.42375 38.0417 5.1875 38.0417C10.3888 38.0417 14.9296 35.154 17.2917 30.9003Z" fill="black"/>
</svg>
