<svg width="27" height="24" viewBox="0 0 27 24" fill="none" xmlns="http://www.w3.org/2000/svg">
<g clip-path="url(#clip0_64_107)">
<path d="M24.6587 0H1.96604C0.878996 0 0 0.773438 0 1.72969V22.2656C0 23.2219 0.878996 24 1.96604 24H24.6587C25.7457 24 26.6299 23.2219 26.6299 22.2703V1.72969C26.6299 0.773438 25.7457 0 24.6587 0ZM7.90056 20.4516H3.94768V8.99531H7.90056V20.4516ZM5.92412 7.43438C4.65504 7.43438 3.63041 6.51094 3.63041 5.37187C3.63041 4.23281 4.65504 3.30937 5.92412 3.30937C7.188 3.30937 8.21263 4.23281 8.21263 5.37187C8.21263 6.50625 7.188 7.43438 5.92412 7.43438ZM22.6927 20.4516H18.745V14.8828C18.745 13.5562 18.719 11.8453 16.6905 11.8453C14.6361 11.8453 14.324 13.2937 14.324 14.7891V20.4516H10.3815V8.99531H14.168V10.5609H14.22C14.7453 9.66094 16.0352 8.70938 17.9544 8.70938C21.9541 8.70938 22.6927 11.0813 22.6927 14.1656V20.4516Z" fill="white"/>
</g>
<defs>
<clipPath id="clip0_64_107">
<rect width="26.6299" height="24" fill="white"/>
</clipPath>
</defs>
</svg>
